<svg preserveAspectRatio="none" width="100%" height="100%" overflow="visible" style="display: block;" viewBox="0 0 41 41" fill="none" xmlns="http://www.w3.org/2000/svg">
<g id="devicon:figma" clip-path="url(#clip0_0_11)">
<path id="Vector" d="M14.5742 41.3203C18.3859 41.3203 21.4609 38.2453 21.4609 34.4336V27.5469H14.5742C10.7625 27.5469 7.6875 30.6219 7.6875 34.4336C7.6875 38.2453 10.7625 41.3203 14.5742 41.3203Z" fill="var(--fill-0, #0ACF83)"/>
<path id="Vector_2" d="M7.6875 20.6602C7.6875 16.8484 10.7625 13.7734 14.5742 13.7734H21.4609V27.5469H14.5742C10.7625 27.5469 7.6875 24.4719 7.6875 20.6602Z" fill="var(--fill-0, #A259FF)"/>
<path id="Vector_3" d="M7.6875 6.88672C7.6875 3.075 10.7625 0 14.5742 0H21.4609V13.7734H14.5742C10.7625 13.7734 7.6875 10.6984 7.6875 6.88672Z" fill="var(--fill-0, #F24E1E)"/>
<path id="Vector_4" d="M21.4609 0H28.3477C32.1594 0 35.2344 3.075 35.2344 6.88672C35.2344 10.6984 32.1594 13.7734 28.3477 13.7734H21.4609V0Z" fill="var(--fill-0, #FF7262)"/>
<path id="Vector_5" d="M35.2344 20.6602C35.2344 24.4719 32.1594 27.5469 28.3477 27.5469C24.5359 27.5469 21.4609 24.4719 21.4609 20.6602C21.4609 16.8484 24.5359 13.7734 28.3477 13.7734C32.1594 13.7734 35.2344 16.8484 35.2344 20.6602Z" fill="var(--fill-0, #1ABCFE)"/>
</g>
<defs>
<clipPath id="clip0_0_11">
<rect width="41" height="41" fill="white"/>
</clipPath>
</defs>
</svg>
